<svg viewBox="0 0 671.40351378 209.415341339" width="671.40351378pt" height="209.415341339pt" xmlns="http://www.w3.org/2000/svg" xmlns:xlink="http://www.w3.org/1999/xlink" xmlns:h5="http://www.w3.org/1999/xhtml"><path fill="#ffffff" fill-rule="nonzero" d="M 0 0v 209.415341339h 671.40351378v -209.415341339Z "/><g transform="translate(8 8)"><path fill="#edeeef" fill-rule="nonzero" stroke="#182936" stroke-width="1.2" stroke-linecap="butt" stroke-linejoin="miter" stroke-miterlimit="4" transform="translate(218.702362205 17.667309843)" d="M 0 0m 38.976377953 0h 141.732283465l 38.976377953 43.937007874h -219.68503937l 38.976377953 -43.937007874Z "/><path fill="none" transform="translate(241.56688189 31.01681378)" d="M 0 0h 173.956v 17.238h -173.956v -17.238Z "/><g transform="translate(241.566881764 31.016813685)"><g><g transform="matrix(1 0 0 -1 0 14.469)"><use xlink:href="#g153A730EB68D3256CED370F1091B92F6" x="0" y="0" fill="#182936" fill-rule="nonzero"/><use xlink:href="#g555560BE63236156B64E0B793A7E67A3" x="9.656" y="0" fill="#182936" fill-rule="nonzero"/><use xlink:href="#g18EE4935FA312E39C19EBBF838709D69" x="18.938" y="0" fill="#182936" fill-rule="nonzero"/><use xlink:href="#g515CD59447C656CCC8DA7BD247D4CD3D" x="27.064" y="0" fill="#182936" fill-rule="nonzero"/><use xlink:href="#gC1FFBE664955D0D121A25C60D57A7CF1" x="36.941" y="0" fill="#182936" fill-rule="nonzero"/></g><g transform="matrix(1 0 0 -1 46.325 14.469)"/><g transform="matrix(1 0 0 -1 62.39 14.469)"><use xlink:href="#g54A96904BF2EB1F8013A88945AD52B3C" x="0" y="0" fill="#6b7683" fill-rule="nonzero"/><use xlink:href="#gCDA9AF01F878C66EC794C3E8A5CD1539" x="7.774" y="0" fill="#6b7683" fill-rule="nonzero"/><use xlink:href="#g9A42EB82FE4F4FD3F12A2BD1E5D8C22B" x="14.846" y="0" fill="#6b7683" fill-rule="nonzero"/><use xlink:href="#g85D12B88E1943A3B5527884FB13CE17C" x="22.464" y="0" fill="#6b7683" fill-rule="nonzero"/><use xlink:href="#gAB24E7B1580C8311BB76DBE38E62FA93" x="31.98" y="0" fill="#6b7683" fill-rule="nonzero"/><use xlink:href="#gC3BFCDB753DEBC8DD01E258E56B41751" x="35.659" y="0" fill="#6b7683" fill-rule="nonzero"/><use xlink:href="#gB26FB13AB44B00B88E81B8B29299BAD2" x="46.254" y="0" fill="#6b7683" fill-rule="nonzero"/><use xlink:href="#g1FEB9CF00B507316F59DE2F59B4BCAFE" x="53.976" y="0" fill="#6b7683" fill-rule="nonzero"/><use xlink:href="#gAFD7C16459E6498289D12F7D13DC4D17" x="58.864" y="0" fill="#6b7683" fill-rule="nonzero"/><use xlink:href="#gE53A867BDB740545500DA516E0E79468" x="66.456" y="0" fill="#6b7683" fill-rule="nonzero"/><use xlink:href="#gC3BFCDB753DEBC8DD01E258E56B41751" x="72.54" y="0" fill="#6b7683" fill-rule="nonzero"/><use xlink:href="#g85D12B88E1943A3B5527884FB13CE17C" x="79.69" y="0" fill="#6b7683" fill-rule="nonzero"/><use xlink:href="#g85D12B88E1943A3B5527884FB13CE17C" x="85.761" y="0" fill="#6b7683" fill-rule="nonzero"/><use xlink:href="#gC3BFCDB753DEBC8DD01E258E56B41751" x="91.832" y="0" fill="#6b7683" fill-rule="nonzero"/><use xlink:href="#g2FF8F4A1450ABF17FF26479E214B7E3D" x="98.982" y="0" fill="#6b7683" fill-rule="nonzero"/><use xlink:href="#g1FEB9CF00B507316F59DE2F59B4BCAFE" x="106.548" y="0" fill="#6b7683" fill-rule="nonzero"/></g></g></g><path fill="none" transform="translate(0 32.87081378)" d="M 0 0h 87.6v 13.53h -87.6v -13.53Z "/><g transform="translate(-9.4e-8 32.870813685)"><g transform="matrix(1 0 0 -1 0 10.335)"><use xlink:href="#g908800CA8FCC4648248FD118F1F18571" x="0" y="0" fill="#182936" fill-rule="nonzero"/><use xlink:href="#g47BF355F78F97BC2AD7D8803E41DE419" x="8.895" y="0" fill="#182936" fill-rule="nonzero"/><use xlink:href="#g85844D4F5AB1502B878CBD67123C59CD" x="17.625" y="0" fill="#182936" fill-rule="nonzero"/><use xlink:href="#g1B39D7ADEDCA6ABA28854BEBC3C1CB04" x="25.875" y="0" fill="#182936" fill-rule="nonzero"/><use xlink:href="#g908800CA8FCC4648248FD118F1F18571" x="30.12" y="0" fill="#182936" fill-rule="nonzero"/><use xlink:href="#g47BF355F78F97BC2AD7D8803E41DE419" x="39.015" y="0" fill="#182936" fill-rule="nonzero"/><use xlink:href="#g85844D4F5AB1502B878CBD67123C59CD" x="47.745" y="0" fill="#182936" fill-rule="nonzero"/><use xlink:href="#gD8D0FC1B6D3FBE7DF8BABF74E5D53699" x="55.995" y="0" fill="#182936" fill-rule="nonzero"/><use xlink:href="#gFCFEBCBBC35E57EE2728EC1157B16F2F" x="66.975" y="0" fill="#182936" fill-rule="nonzero"/><use xlink:href="#gBA7C99291F1CC981CB33D37BD7FF6681" x="78.84" y="0" fill="#182936" fill-rule="nonzero"/></g></g><path fill="none" transform="translate(569.48976378 34.37831378)" d="M 0 0h 26.265v 10.515h -26.265v -10.515Z "/><g transform="translate(569.489763685 34.378313685)"><g transform="matrix(1 0 0 -1 0 10.335)"><use xlink:href="#gB77D2FC30968223749C3033AF1C87489" x="0" y="0" fill="#182936" fill-rule="nonzero"/><use xlink:href="#g13623C15D101D7E4418274C621A035EC" x="10.47" y="0" fill="#182936" fill-rule="nonzero"/><use xlink:href="#gD8D0FC1B6D3FBE7DF8BABF74E5D53699" x="19.26" y="0" fill="#182936" fill-rule="nonzero"/></g></g><path fill="#dadddf" fill-rule="nonzero" stroke="#182936" stroke-width="1.2" stroke-linecap="butt" stroke-linejoin="miter" stroke-miterlimit="4" transform="translate(179.725984252 61.604317717)" d="M 0 0m 38.976377953 0h 219.68503937l 38.976377953 43.937007874h -297.637795276l 38.976377953 -43.937007874Z "/><path fill="none" transform="translate(256.04388189 76.210821654)" d="M 0 0h 145.002v 14.724h -145.002v -14.724Z "/><g transform="translate(256.043881795 76.210821654)"><g><g transform="matrix(1 0 0 -1 0 14.469)"><use xlink:href="#g11D02704E9BD29D2E8FEE903673757AF" x="0" y="0" fill="#182936" fill-rule="nonzero"/><use xlink:href="#g2506A026466B3ED3721379E61290AA0A" x="13.413" y="0" fill="#182936" fill-rule="nonzero"/><use xlink:href="#g8D2650C4C7F7A00F8B9A570240591BEF" x="22.797" y="0" fill="#182936" fill-rule="nonzero"/><use xlink:href="#gB3D7984F9592968B06490117BA6A48EC" x="37.247" y="0" fill="#182936" fill-rule="nonzero"/><use xlink:href="#gFB7FCA15D6726E9BAD14CE048C9DFF3A" x="47.175" y="0" fill="#182936" fill-rule="nonzero"/><use xlink:href="#g26F6204CC6BF8013D0BC324BAD599B02" x="51.969" y="0" fill="#182936" fill-rule="nonzero"/><use xlink:href="#gC1FFBE664955D0D121A25C60D57A7CF1" x="58.497" y="0" fill="#182936" fill-rule="nonzero"/><use xlink:href="#gFE803BF860C29CFF0AD7DE82EBD6BE0E" x="72.131" y="0" fill="#182936" fill-rule="nonzero"/><use xlink:href="#gFB7FCA15D6726E9BAD14CE048C9DFF3A" x="80.699" y="0" fill="#182936" fill-rule="nonzero"/><use xlink:href="#gFE803BF860C29CFF0AD7DE82EBD6BE0E" x="85.493" y="0" fill="#182936" fill-rule="nonzero"/><use xlink:href="#gC1FFBE664955D0D121A25C60D57A7CF1" x="93.891" y="0" fill="#182936" fill-rule="nonzero"/></g><g transform="matrix(1 0 0 -1 103.275 14.469)"/><g transform="matrix(1 0 0 -1 119.34 14.469)"><use xlink:href="#gB3DBC6E4D9C6C3C4866D49BD162D1BC2" x="0" y="0" fill="#6b7683" fill-rule="nonzero"/><use xlink:href="#g7015998E5DC70398E92CC6578F72F647" x="7.865" y="0" fill="#6b7683" fill-rule="nonzero"/><use xlink:href="#g1361B9E48CCA11C3D07C6BAEADF82E80" x="15.314" y="0" fill="#6b7683" fill-rule="nonzero"/></g></g></g><path fill="none" transform="translate(26.115 78.315321654)" d="M 0 0h 61.485v 10.515h -61.485v -10.515Z "/><g transform="translate(26.114999953 78.315321559)"><g transform="matrix(1 0 0 -1 0 10.335)"><use xlink:href="#g172161F9DA9AB52034F5E2AC8C5B512" x="0" y="0" fill="#182936" fill-rule="nonzero"/><use xlink:href="#gA5BD28BF4ECC08FB10645E8D02EB7B1A" x="12.24" y="0" fill="#182936" fill-rule="nonzero"/><use xlink:href="#g7887E0FF6495577B8E45131744738B95" x="24.375" y="0" fill="#182936" fill-rule="nonzero"/><use xlink:href="#g57F1A74F0B451F83C79E765E4299E9C5" x="31.86" y="0" fill="#182936" fill-rule="nonzero"/><use xlink:href="#gEFAA6B31A09AAB0ACF628540F070E857" x="43.26" y="0" fill="#182936" fill-rule="nonzero"/><use xlink:href="#gBA7C99291F1CC981CB33D37BD7FF6681" x="52.725" y="0" fill="#182936" fill-rule="nonzero"/></g></g><path fill="none" transform="translate(569.48976378 78.315321654)" d="M 0 0h 43.005v 10.515h -43.005v -10.515Z "/><g transform="translate(569.489763685 78.315321559)"><g transform="matrix(1 0 0 -1 0 10.335)"><use xlink:href="#gB77D2FC30968223749C3033AF1C87489" x="0" y="0" fill="#182936" fill-rule="nonzero"/><use xlink:href="#g726B0D8E60A662449E18BC3FDB88A8A8" x="6.495" y="0" fill="#182936" fill-rule="nonzero"/><use xlink:href="#g726B0D8E60A662449E18BC3FDB88A8A8" x="14.865" y="0" fill="#182936" fill-rule="nonzero"/><use xlink:href="#g13623C15D101D7E4418274C621A035EC" x="27.21" y="0" fill="#182936" fill-rule="nonzero"/><use xlink:href="#gD8D0FC1B6D3FBE7DF8BABF74E5D53699" x="36" y="0" fill="#182936" fill-rule="nonzero"/></g></g><path fill="#c8cccf" fill-rule="nonzero" stroke="#182936" stroke-width="1.2" stroke-linecap="butt" stroke-linejoin="miter" stroke-miterlimit="4" transform="translate(140.749606299 105.541325591)" d="M 0 0m 38.976377953 0h 297.637795276l 38.976377953 43.937007874h -375.590551181l 38.976377953 -43.937007874Z "/><path fill="none" transform="translate(239.81638189 118.422329528)" d="M 0 0h 177.457v 18.175h -177.457v -18.175Z "/><g transform="translate(239.816381764 118.422329402)"><g><g transform="matrix(1 0 0 -1 0 14.469)"><use xlink:href="#gE400A520672726CC80C725DB46891D10" x="0" y="0" fill="#182936" fill-rule="nonzero"/><use xlink:href="#gFB7FCA15D6726E9BAD14CE048C9DFF3A" x="11.016" y="0" fill="#182936" fill-rule="nonzero"/><use xlink:href="#gBAAEE7D72FFB055E2394D8C41B4CF3A4" x="15.81" y="0" fill="#182936" fill-rule="nonzero"/><use xlink:href="#g7AD8CCF076FEDFA50AE86CBFDE321C0B" x="23.902" y="0" fill="#182936" fill-rule="nonzero"/><use xlink:href="#g999ACDBE2466066DB7452B35716627AB" x="34" y="0" fill="#182936" fill-rule="nonzero"/><use xlink:href="#gC1FFBE664955D0D121A25C60D57A7CF1" x="43.809" y="0" fill="#182936" fill-rule="nonzero"/></g><g transform="matrix(1 0 0 -1 53.193 14.469)"/><g transform="matrix(1 0 0 -1 69.258 14.469)"><use xlink:href="#g8BF8AF23DEE13E701F3D0F0BF4F4A18B" x="0" y="0" fill="#6b7683" fill-rule="nonzero"/><use xlink:href="#g8BF8AF23DEE13E701F3D0F0BF4F4A18B" x="6.955" y="0" fill="#6b7683" fill-rule="nonzero"/><use xlink:href="#g869E3DFFC36AD4D8503C7C9ADA9ADA60" x="14.04" y="0" fill="#6b7683" fill-rule="nonzero"/><use xlink:href="#gAFD7C16459E6498289D12F7D13DC4D17" x="25.857" y="0" fill="#6b7683" fill-rule="nonzero"/><use xlink:href="#g2FF8F4A1450ABF17FF26479E214B7E3D" x="33.449" y="0" fill="#6b7683" fill-rule="nonzero"/><use xlink:href="#g54A96904BF2EB1F8013A88945AD52B3C" x="44.46" y="0" fill="#6b7683" fill-rule="nonzero"/><use xlink:href="#gB5B4688AAA843FE356DE918E5C16C780" x="52.234" y="0" fill="#6b7683" fill-rule="nonzero"/><use xlink:href="#g85D12B88E1943A3B5527884FB13CE17C" x="55.9" y="0" fill="#6b7683" fill-rule="nonzero"/><use xlink:href="#g1E98E0723864BDEB8DA435F32E89390D" x="61.971" y="0" fill="#6b7683" fill-rule="nonzero"/><use xlink:href="#g2FF8F4A1450ABF17FF26479E214B7E3D" x="69.68" y="0" fill="#6b7683" fill-rule="nonzero"/><use xlink:href="#gC3BFCDB753DEBC8DD01E258E56B41751" x="77.246" y="0" fill="#6b7683" fill-rule="nonzero"/><use xlink:href="#g54A96904BF2EB1F8013A88945AD52B3C" x="87.841" y="0" fill="#6b7683" fill-rule="nonzero"/><use xlink:href="#g2FF8F4A1450ABF17FF26479E214B7E3D" x="95.615" y="0" fill="#6b7683" fill-rule="nonzero"/><use xlink:href="#g1FEB9CF00B507316F59DE2F59B4BCAFE" x="103.181" y="0" fill="#6b7683" fill-rule="nonzero"/></g></g></g><path fill="none" transform="translate(24.735 121.097329528)" d="M 0 0h 62.865v 12.825h -62.865v -12.825Z "/><g transform="translate(24.735 121.097329528)"><g transform="matrix(1 0 0 -1 0 10.335)"><use xlink:href="#g726B0D8E60A662449E18BC3FDB88A8A8" x="0" y="0" fill="#182936" fill-rule="nonzero"/><use xlink:href="#g91451115A39664397720F87793924C3D" x="8.37" y="0" fill="#182936" fill-rule="nonzero"/><use xlink:href="#gBD1A2E22FEBF37418FA9AD1F43913F21" x="11.97" y="0" fill="#182936" fill-rule="nonzero"/><use xlink:href="#gA5BD28BF4ECC08FB10645E8D02EB7B1A" x="23.46" y="0" fill="#182936" fill-rule="nonzero"/><use xlink:href="#g184A955A5788F64A841441397B0F9B" x="35.595" y="0" fill="#182936" fill-rule="nonzero"/><use xlink:href="#gEC0B5F71FD594D8AD137C858A440B265" x="47.55" y="0" fill="#182936" fill-rule="nonzero"/><use xlink:href="#gBA7C99291F1CC981CB33D37BD7FF6681" x="54.105" y="0" fill="#182936" fill-rule="nonzero"/></g></g><path fill="none" transform="translate(569.48976378 121.097329528)" d="M 0 0h 71.475v 12.825h -71.475v -12.825Z "/><g transform="translate(569.489763732 121.097329528)"><g transform="matrix(1 0 0 -1 0 10.335)"><use xlink:href="#g726B0D8E60A662449E18BC3FDB88A8A8" x="0" y="0" fill="#182936" fill-rule="nonzero"/><use xlink:href="#g91451115A39664397720F87793924C3D" x="8.37" y="0" fill="#182936" fill-rule="nonzero"/><use xlink:href="#gB77D2FC30968223749C3033AF1C87489" x="10.17" y="0" fill="#182936" fill-rule="nonzero"/><use xlink:href="#gA5BD28BF4ECC08FB10645E8D02EB7B1A" x="20.64" y="0" fill="#182936" fill-rule="nonzero"/><use xlink:href="#gB77D2FC30968223749C3033AF1C87489" x="32.775" y="0" fill="#182936" fill-rule="nonzero"/><use xlink:href="#g726B0D8E60A662449E18BC3FDB88A8A8" x="39.27" y="0" fill="#182936" fill-rule="nonzero"/><use xlink:href="#g56A699EF19EE5CF72C363A14CFF5B105" x="51.615" y="0" fill="#182936" fill-rule="nonzero"/><use xlink:href="#gD8D0FC1B6D3FBE7DF8BABF74E5D53699" x="64.47" y="0" fill="#182936" fill-rule="nonzero"/></g></g><path fill="#b5bbbf" fill-rule="nonzero" stroke="#182936" stroke-width="1.2" stroke-linecap="butt" stroke-linejoin="miter" stroke-miterlimit="4" transform="translate(101.773228346 149.478333465)" d="M 0 0m 38.976377953 0h 375.590551181l 38.976377953 43.937007874h -453.543307087l 38.976377953 -43.937007874Z "/><path fill="none" transform="translate(234.25338189 164.084837402)" d="M 0 0h 188.583v 14.724h -188.583v -14.724Z "/><g transform="translate(234.253381843 164.084837402)"><g><g transform="matrix(1 0 0 -1 0 14.469)"><use xlink:href="#g12417DE4E4F345A01CCE4D1D31BF4A1A" x="0" y="0" fill="#182936" fill-rule="nonzero"/><use xlink:href="#g2506A026466B3ED3721379E61290AA0A" x="10.217" y="0" fill="#182936" fill-rule="nonzero"/><use xlink:href="#gBAAEE7D72FFB055E2394D8C41B4CF3A4" x="19.601" y="0" fill="#182936" fill-rule="nonzero"/><use xlink:href="#gC1FFBE664955D0D121A25C60D57A7CF1" x="27.693" y="0" fill="#182936" fill-rule="nonzero"/><use xlink:href="#g555560BE63236156B64E0B793A7E67A3" x="37.077" y="0" fill="#182936" fill-rule="nonzero"/><use xlink:href="#g999ACDBE2466066DB7452B35716627AB" x="46.359" y="0" fill="#182936" fill-rule="nonzero"/></g><g transform="matrix(1 0 0 -1 56.168 14.469)"/><g transform="matrix(1 0 0 -1 72.233 14.469)"><use xlink:href="#g2FF8F4A1450ABF17FF26479E214B7E3D" x="0" y="0" fill="#6b7683" fill-rule="nonzero"/><use xlink:href="#g9A42EB82FE4F4FD3F12A2BD1E5D8C22B" x="7.566" y="0" fill="#6b7683" fill-rule="nonzero"/><use xlink:href="#gCDA9AF01F878C66EC794C3E8A5CD1539" x="18.629" y="0" fill="#6b7683" fill-rule="nonzero"/><use xlink:href="#g2FF8F4A1450ABF17FF26479E214B7E3D" x="25.701" y="0" fill="#6b7683" fill-rule="nonzero"/><use xlink:href="#g9B398F5C58544173B12B8B90B7B4CE5A" x="33.267" y="0" fill="#6b7683" fill-rule="nonzero"/><use xlink:href="#g1FEB9CF00B507316F59DE2F59B4BCAFE" x="37.96" y="0" fill="#6b7683" fill-rule="nonzero"/><use xlink:href="#gC3BFCDB753DEBC8DD01E258E56B41751" x="42.848" y="0" fill="#6b7683" fill-rule="nonzero"/><use xlink:href="#gAFD7C16459E6498289D12F7D13DC4D17" x="53.443" y="0" fill="#6b7683" fill-rule="nonzero"/><use xlink:href="#g1FEB9CF00B507316F59DE2F59B4BCAFE" x="61.035" y="0" fill="#6b7683" fill-rule="nonzero"/><use xlink:href="#g54A96904BF2EB1F8013A88945AD52B3C" x="65.923" y="0" fill="#6b7683" fill-rule="nonzero"/><use xlink:href="#gB5B4688AAA843FE356DE918E5C16C780" x="73.697" y="0" fill="#6b7683" fill-rule="nonzero"/><use xlink:href="#g9A42EB82FE4F4FD3F12A2BD1E5D8C22B" x="77.363" y="0" fill="#6b7683" fill-rule="nonzero"/><use xlink:href="#gCDA9AF01F878C66EC794C3E8A5CD1539" x="84.981" y="0" fill="#6b7683" fill-rule="nonzero"/><use xlink:href="#g9B398F5C58544173B12B8B90B7B4CE5A" x="92.053" y="0" fill="#6b7683" fill-rule="nonzero"/><use xlink:href="#gC3BFCDB753DEBC8DD01E258E56B41751" x="96.616" y="0" fill="#6b7683" fill-rule="nonzero"/><use xlink:href="#g2FF8F4A1450ABF17FF26479E214B7E3D" x="103.766" y="0" fill="#6b7683" fill-rule="nonzero"/><use xlink:href="#g1FEB9CF00B507316F59DE2F59B4BCAFE" x="111.332" y="0" fill="#6b7683" fill-rule="nonzero"/></g></g></g><path fill="none" transform="translate(13.44 166.189337402)" d="M 0 0h 74.16v 10.515h -74.16v -10.515Z "/><g transform="translate(13.439999858 166.189337307)"><g transform="matrix(1 0 0 -1 0 10.335)"><use xlink:href="#gD8D0FC1B6D3FBE7DF8BABF74E5D53699" x="0" y="0" fill="#182936" fill-rule="nonzero"/><use xlink:href="#g59271539E7488636B02BC8BC42E313E8" x="7.005" y="0" fill="#182936" fill-rule="nonzero"/><use xlink:href="#g13623C15D101D7E4418274C621A035EC" x="15.165" y="0" fill="#182936" fill-rule="nonzero"/><use xlink:href="#gD8D0FC1B6D3FBE7DF8BABF74E5D53699" x="23.955" y="0" fill="#182936" fill-rule="nonzero"/><use xlink:href="#g1B39D7ADEDCA6ABA28854BEBC3C1CB04" x="34.935" y="0" fill="#182936" fill-rule="nonzero"/><use xlink:href="#g63B877D79C1A1BB5FEBA58FD550F45B4" x="39.33" y="0" fill="#182936" fill-rule="nonzero"/><use xlink:href="#g56A699EF19EE5CF72C363A14CFF5B105" x="43.56" y="0" fill="#182936" fill-rule="nonzero"/><use xlink:href="#g63B877D79C1A1BB5FEBA58FD550F45B4" x="56.415" y="0" fill="#182936" fill-rule="nonzero"/><use xlink:href="#g16786E7496FDFA352F20836B6C22FB9" x="60.645" y="0" fill="#182936" fill-rule="nonzero"/><use xlink:href="#g85844D4F5AB1502B878CBD67123C59CD" x="65.91" y="0" fill="#182936" fill-rule="nonzero"/></g></g><path fill="none" transform="translate(569.48976378 166.189337402)" d="M 0 0h 70.665v 10.515h -70.665v -10.515Z "/><g transform="translate(569.489763732 166.189337307)"><g transform="matrix(1 0 0 -1 0 10.335)"><use xlink:href="#gB77D2FC30968223749C3033AF1C87489" x="0" y="0" fill="#182936" fill-rule="nonzero"/><use xlink:href="#gA5BD28BF4ECC08FB10645E8D02EB7B1A" x="10.47" y="0" fill="#182936" fill-rule="nonzero"/><use xlink:href="#g7887E0FF6495577B8E45131744738B95" x="22.605" y="0" fill="#182936" fill-rule="nonzero"/><use xlink:href="#g726B0D8E60A662449E18BC3FDB88A8A8" x="30.09" y="0" fill="#182936" fill-rule="nonzero"/><use xlink:href="#g726B0D8E60A662449E18BC3FDB88A8A8" x="38.46" y="0" fill="#182936" fill-rule="nonzero"/><use xlink:href="#g56A699EF19EE5CF72C363A14CFF5B105" x="50.805" y="0" fill="#182936" fill-rule="nonzero"/><use xlink:href="#gD8D0FC1B6D3FBE7DF8BABF74E5D53699" x="63.66" y="0" fill="#182936" fill-rule="nonzero"/></g></g><path fill="none" transform="translate(51.6212 0.1326)" d="M 0 0h 35.9788v 7.61345h -35.9788v -7.61345Z "/><g transform="translate(51.621199874 0.132599961)"><g transform="matrix(1 0 0 -1 0 7.61345)"><use xlink:href="#gC128E7A59328BF51BC3FF05F928BE9A1" x="0" y="0" fill="#6b7683" fill-rule="nonzero"/><use xlink:href="#gAAC0A09B2F09F52249787A1DE9065D3C" x="5.93385" y="0" fill="#6b7683" fill-rule="nonzero"/><use xlink:href="#g3C74FB9963B8F5B7E1636EFDF9F8F90D" x="13.1495" y="0" fill="#6b7683" fill-rule="nonzero"/><use xlink:href="#gAD38C9EE51CD5B8774C3F1DE39FBEA94" x="17.29325" y="0" fill="#6b7683" fill-rule="nonzero"/><use xlink:href="#gAD38C9EE51CD5B8774C3F1DE39FBEA94" x="23.68015" y="0" fill="#6b7683" fill-rule="nonzero"/><use xlink:href="#g753EC0F5CDFB5B808B19C647FECA7D56" x="30.06705" y="0" fill="#6b7683" fill-rule="nonzero"/></g></g><path fill="none" transform="translate(569.48976378)" d="M 0 0h 85.91375v 7.74605h -85.91375v -7.74605Z "/><g transform="translate(569.489763646 -1.34e-7)"><g transform="matrix(1 0 0 -1 0 7.61345)"><use xlink:href="#gC128E7A59328BF51BC3FF05F928BE9A1" x="0" y="0" fill="#6b7683" fill-rule="nonzero"/><use xlink:href="#g753EC0F5CDFB5B808B19C647FECA7D56" x="6.59685" y="0" fill="#6b7683" fill-rule="nonzero"/><use xlink:href="#gF678968D150E124D7BF639511CFB8B47" x="13.3926" y="0" fill="#6b7683" fill-rule="nonzero"/><use xlink:href="#g81E9DCC22264F0F407E5518ECB42F3DE" x="23.0724" y="0" fill="#6b7683" fill-rule="nonzero"/><use xlink:href="#gF9005B2C2A77C3091A56D4E4A6A1AF45" x="30.26595" y="0" fill="#6b7683" fill-rule="nonzero"/><use xlink:href="#g6392FE002FFBD31B85155A3BD2886297" x="40.98445" y="0" fill="#6b7683" fill-rule="nonzero"/><use xlink:href="#gBD9544C147CB05BA5B0BB217D627EEE7" x="48.98465" y="0" fill="#6b7683" fill-rule="nonzero"/><use xlink:href="#gAAC0A09B2F09F52249787A1DE9065D3C" x="52.2886" y="0" fill="#6b7683" fill-rule="nonzero"/><use xlink:href="#g8ACD1BB3800AB2B8EDDB4E8332F1A4BE" x="59.17275" y="0" fill="#6b7683" fill-rule="nonzero"/><use xlink:href="#g8ACD1BB3800AB2B8EDDB4E8332F1A4BE" x="66.02375" y="0" fill="#6b7683" fill-rule="nonzero"/><use xlink:href="#g818FD7325E825C6DA0DB1BBD9DA1331A" x="73.09575" y="0" fill="#6b7683" fill-rule="nonzero"/><use xlink:href="#gF9005B2C2A77C3091A56D4E4A6A1AF45" x="79.8915" y="0" fill="#6b7683" fill-rule="nonzero"/></g></g></g><defs><symbol id="g153A730EB68D3256CED370F1091B92F6" overflow="visible"><path d="M 0 0m 7.7435 11.696q 0.8075 -0.306 1.5555 -0.935l -1.156 -1.343q -1.003 0.85 -2.176 0.85q -1.309 0 -2.091 -1.054q -0.782 -1.054 -0.782 -3.315q 0 -2.227 0.782 -3.2895q 0.782 -1.0625 2.125 -1.0625q 0.68 0 1.207 0.255q 0.527 0.255 1.173 0.731l 1.054 -1.36q -0.595 -0.612 -1.5045 -1.02q -0.9095 -0.408 -2.0315 -0.408q -1.53 0 -2.703 0.714q -1.173 0.714 -1.819 2.0995q -0.646 1.3855 -0.646 3.3405q 0 1.921 0.6715 3.298q 0.6715 1.377 1.8275 2.091q 1.156 0.714 2.601 0.714q 1.105 0 1.9125 -0.306Z "/></symbol><symbol id="g555560BE63236156B64E0B793A7E67A3" overflow="visible"><path d="M 0 0m 8.1175 1.6065q 0.1615 -0.2465 0.5185 -0.3825l -0.459 -1.445q -0.765 0.068 -1.2495 0.3655q -0.4845 0.2975 -0.7395 0.9435q -0.459 -0.68 -1.1475 -1.0115q -0.6885 -0.3315 -1.5385 -0.3315q -1.343 0 -2.125 0.765q -0.782 0.765 -0.782 2.006q 0 1.462 1.0625 2.2355q 1.0625 0.7735 3.0345 0.7735h 1.122v 0.51q 0 0.867 -0.3995 1.2155q -0.3995 0.3485 -1.2835 0.3485q -0.986 0 -2.38 -0.476l -0.51 1.479q 1.683 0.646 3.264 0.646q 3.451 0 3.451 -3.094v -3.774q 0 -0.527 0.1615 -0.7735Z m -2.3035 0.8245v 1.819h -0.901q -2.108 0 -2.108 -1.564q 0 -0.646 0.323 -1.003q 0.323 -0.357 0.952 -0.357q 1.105 0 1.734 1.105Z "/></symbol><symbol id="g18EE4935FA312E39C19EBBF838709D69" overflow="visible"><path d="M 0 0m 6.5195 8.993q 0.7055 -0.255 1.3345 -0.799l -0.969 -1.309q -0.459 0.34 -0.884 0.493q -0.425 0.153 -0.935 0.153q -2.023 0 -2.023 -3.077q 0 -1.564 0.527 -2.2525q 0.527 -0.6885 1.496 -0.6885q 0.476 0 0.8755 0.153q 0.3995 0.153 0.9435 0.493l 0.969 -1.377q -1.275 -1.037 -2.907 -1.037q -1.292 0 -2.244 0.5695q -0.952 0.5695 -1.462 1.6235q -0.51 1.054 -0.51 2.482q 0 1.428 0.51 2.5245q 0.51 1.0965 1.462 1.7q 0.952 0.6035 2.227 0.6035q 0.884 0 1.5895 -0.255Z "/></symbol><symbol id="g515CD59447C656CCC8DA7BD247D4CD3D" overflow="visible"><path d="M 0 0m 7.973 8.517q 0.68 -0.731 0.68 -2.006v -6.511h -2.176v 6.171q 0 0.799 -0.2805 1.122q -0.2805 0.323 -0.8245 0.323q -0.544 0 -1.003 -0.3485q -0.459 -0.3485 -0.884 -0.9945v -6.273h -2.176v 12.58l 2.176 0.221v -4.896q 1.071 1.343 2.618 1.343q 1.19 0 1.87 -0.731Z "/></symbol><symbol id="gC1FFBE664955D0D121A25C60D57A7CF1" overflow="visible"><path d="M 0 0m 8.636 3.825h -5.644q 0.119 -1.309 0.6885 -1.87q 0.5695 -0.561 1.5215 -0.561q 0.595 0 1.122 0.1955q 0.527 0.1955 1.122 0.6035l 0.901 -1.241q -1.496 -1.207 -3.332 -1.207q -2.057 0 -3.1705 1.258q -1.1135 1.258 -1.1135 3.434q 0 1.377 0.476 2.4735q 0.476 1.0965 1.377 1.717q 0.901 0.6205 2.142 0.6205q 1.887 0 2.924 -1.1985q 1.037 -1.1985 1.037 -3.3405q 0 -0.17 -0.051 -0.884Z m -2.108 1.513q 0 2.363 -1.751 2.363q -0.799 0 -1.2495 -0.5865q -0.4505 -0.5865 -0.5355 -1.8785h 3.536v 0.102Z "/></symbol><symbol id="g54A96904BF2EB1F8013A88945AD52B3C" overflow="visible"><path d="M 0 0m 6.539 9.607v -9.607h -1.053l -0.117 0.949q -0.338 -0.52 -0.845 -0.8125q -0.507 -0.2925 -1.131 -0.2925q -1.222 0 -1.9045 0.962q -0.6825 0.962 -0.6825 2.587q 0 1.053 0.325 1.872q 0.325 0.819 0.936 1.2805q 0.611 0.4615 1.43 0.4615q 1.053 0 1.846 -0.845v 3.588l 1.196 -0.143Z m -1.95 -8.5605q 0.39 0.2535 0.754 0.7605v 3.354q -0.338 0.442 -0.7215 0.6695q -0.3835 0.2275 -0.8645 0.2275q -0.793 0 -1.2285 -0.663q -0.4355 -0.663 -0.4355 -1.976q 0 -1.326 0.403 -1.976q 0.403 -0.65 1.157 -0.65q 0.546 0 0.936 0.2535Z "/></symbol><symbol id="gCDA9AF01F878C66EC794C3E8A5CD1539" overflow="visible"><path d="M 0 0m 5.993 0.9815q 0.143 -0.2015 0.429 -0.3055l -0.273 -0.832q -0.533 0.065 -0.858 0.299q -0.325 0.234 -0.481 0.728q -0.689 -1.027 -2.041 -1.027q -1.014 0 -1.599 0.572q -0.585 0.572 -0.585 1.495q 0 1.092 0.7865 1.677q 0.7865 0.585 2.2295 0.585h 1.053v 0.507q 0 0.728 -0.351 1.04q -0.351 0.312 -1.079 0.312q -0.754 0 -1.846 -0.364l -0.299 0.871q 1.274 0.468 2.366 0.468q 1.209 0 1.807 -0.5915q 0.598 -0.5915 0.598 -1.6835v -3.133q 0 -0.416 0.143 -0.6175Z m -1.339 0.8255v 1.573h -0.897q -1.898 0 -1.898 -1.404q 0 -0.611 0.299 -0.923q 0.299 -0.312 0.884 -0.312q 1.027 0 1.612 1.066Z "/></symbol><symbol id="g9A42EB82FE4F4FD3F12A2BD1E5D8C22B" overflow="visible"><path d="M 0 0m 5.9215 6.448q 0.5265 -0.559 0.5265 -1.534v -4.914h -1.196v 4.745q 0 0.728 -0.273 1.027q -0.273 0.299 -0.806 0.299q -0.546 0 -0.962 -0.312q -0.416 -0.312 -0.78 -0.897v -4.862h -1.196v 6.851h 1.027l 0.104 -1.014q 0.364 0.546 0.9035 0.858q 0.5395 0.312 1.1895 0.312q 0.936 0 1.4625 -0.559Z "/></symbol><symbol id="g85D12B88E1943A3B5527884FB13CE17C" overflow="visible"><path d="M 0 0m 4.355 6.812q 0.559 -0.195 1.066 -0.585l -0.507 -0.754q -0.468 0.299 -0.8905 0.442q -0.4225 0.143 -0.8905 0.143q -0.585 0 -0.923 -0.2405q -0.338 -0.2405 -0.338 -0.6565q 0 -0.416 0.3185 -0.65q 0.3185 -0.234 1.1505 -0.455q 1.144 -0.286 1.7095 -0.78q 0.5655 -0.494 0.5655 -1.352q 0 -1.014 -0.7865 -1.547q -0.7865 -0.533 -1.9175 -0.533q -1.56 0 -2.587 0.897l 0.637 0.728q 0.871 -0.663 1.924 -0.663q 0.676 0 1.0725 0.2795q 0.3965 0.2795 0.3965 0.7605q 0 0.351 -0.143 0.5655q -0.143 0.2145 -0.494 0.377q -0.351 0.1625 -1.027 0.3445q -1.092 0.286 -1.5795 0.767q -0.4875 0.481 -0.4875 1.222q 0 0.533 0.3185 0.9685q 0.3185 0.4355 0.884 0.676q 0.5655 0.2405 1.2675 0.2405q 0.702 0 1.261 -0.195Z "/></symbol><symbol id="gAB24E7B1580C8311BB76DBE38E62FA93" overflow="visible"><path d="M 0 0m 1.5535 0.2405q -0.3835 0.3965 -0.3835 1.1115v 8.255l 1.196 0.143v -8.372q 0 -0.286 0.0975 -0.416q 0.0975 -0.13 0.3315 -0.13q 0.247 0 0.442 0.078l 0.312 -0.832q -0.429 -0.234 -0.949 -0.234q -0.663 0 -1.0465 0.3965Z "/></symbol><symbol id="gC3BFCDB753DEBC8DD01E258E56B41751" overflow="visible"><path d="M 0 0m 6.383 3.016h -4.368q 0.078 -1.131 0.572 -1.664q 0.494 -0.533 1.274 -0.533q 0.494 0 0.91 0.143q 0.416 0.143 0.871 0.455l 0.52 -0.715q -1.092 -0.858 -2.392 -0.858q -1.43 0 -2.2295 0.936q -0.7995 0.936 -0.7995 2.574q 0 1.066 0.3445 1.8915q 0.3445 0.8255 0.988 1.2935q 0.6435 0.468 1.5145 0.468q 1.365 0 2.093 -0.897q 0.728 -0.897 0.728 -2.483q 0 -0.299 -0.026 -0.611Z m -1.157 0.962q 0 1.014 -0.403 1.547q -0.403 0.533 -1.209 0.533q -1.469 0 -1.599 -2.158h 3.211v 0.078Z "/></symbol><symbol id="gB26FB13AB44B00B88E81B8B29299BAD2" overflow="visible"><path d="M 0 0m 6.305 6.071q 0.611 -0.936 0.611 -2.639q 0 -1.612 -0.702 -2.6q -0.702 -0.988 -1.989 -0.988q -1.144 0 -1.794 0.78v -3.25l -1.196 -0.143v 9.62h 1.027l 0.091 -0.923q 0.377 0.52 0.91 0.7995q 0.533 0.2795 1.118 0.2795q 1.313 0 1.924 -0.936Z m -0.676 -2.639q 0 2.626 -1.547 2.626q -0.507 0 -0.923 -0.299q -0.416 -0.299 -0.728 -0.767v -3.341q 0.26 -0.403 0.65 -0.6175q 0.39 -0.2145 0.858 -0.2145q 1.69 0 1.69 2.613Z "/></symbol><symbol id="g1FEB9CF00B507316F59DE2F59B4BCAFE" overflow="visible"><path d="M 0 0m 4.888 6.929l -0.221 -1.17q -0.312 0.078 -0.598 0.078q -0.637 0 -1.027 -0.468q -0.39 -0.468 -0.611 -1.456v -3.913h -1.196v 6.851h 1.027l 0.117 -1.391q 0.273 0.767 0.741 1.157q 0.468 0.39 1.092 0.39q 0.364 0 0.676 -0.078Z "/></symbol><symbol id="gAFD7C16459E6498289D12F7D13DC4D17" overflow="visible"><path d="M 0 0m 6.0515 6.045q 0.7995 -0.962 0.7995 -2.613q 0 -1.066 -0.364 -1.8785q -0.364 -0.8125 -1.053 -1.261q -0.689 -0.4485 -1.638 -0.4485q -1.443 0 -2.249 0.962q -0.806 0.962 -0.806 2.613q 0 1.066 0.364 1.8785q 0.364 0.8125 1.053 1.261q 0.689 0.4485 1.651 0.4485q 1.443 0 2.2425 -0.962Z m -4.0235 -2.626q 0 -2.613 1.768 -2.613q 1.768 0 1.768 2.626q 0 2.613 -1.755 2.613q -1.781 0 -1.781 -2.626Z "/></symbol><symbol id="gE53A867BDB740545500DA516E0E79468" overflow="visible"><path d="M 0 0m 4.849 6.8315q 0.507 -0.1755 0.975 -0.5655l -0.572 -0.754q -0.364 0.26 -0.7085 0.3835q -0.3445 0.1235 -0.7605 0.1235q -0.832 0 -1.2935 -0.663q -0.4615 -0.663 -0.4615 -1.963q 0 -1.3 0.455 -1.9175q 0.455 -0.6175 1.3 -0.6175q 0.403 0 0.741 0.1235q 0.338 0.1235 0.754 0.3965l 0.546 -0.78q -0.936 -0.754 -2.093 -0.754q -1.391 0 -2.1905 0.936q -0.7995 0.936 -0.7995 2.587q 0 1.092 0.364 1.911q 0.364 0.819 1.0335 1.274q 0.6695 0.455 1.5925 0.455q 0.611 0 1.118 -0.1755Z "/></symbol><symbol id="g2FF8F4A1450ABF17FF26479E214B7E3D" overflow="visible"><path d="M 0 0m 6.331 0h -1.027l -0.091 1.066q -0.39 -0.637 -0.897 -0.9295q -0.507 -0.2925 -1.235 -0.2925q -0.897 0 -1.404 0.546q -0.507 0.546 -0.507 1.547v 4.914h 1.196v -4.784q 0 -0.702 0.247 -0.9945q 0.247 -0.2925 0.806 -0.2925q 1.001 0 1.716 1.183v 4.888h 1.196v -6.851Z "/></symbol><symbol id="g908800CA8FCC4648248FD118F1F18571" overflow="visible"><path d="M 0 0m 7.47 7.905v -11.1l -1.38 0.165v 4.08q -0.39 -0.585 -0.9675 -0.9075q -0.5775 -0.3225 -1.2825 -0.3225q -1.41 0 -2.1975 1.11q -0.7875 1.11 -0.7875 2.985q 0 1.215 0.375 2.16q 0.375 0.945 1.08 1.4775q 0.705 0.5325 1.65 0.5325q 1.26 0 2.22 -1.065l 0.105 0.885h 1.185Z m -2.25 -6.6975q 0.45 0.2925 0.87 0.8775v 3.87q -0.39 0.51 -0.8325 0.7725q -0.4425 0.2625 -0.9975 0.2625q -0.915 0 -1.4175 -0.765q -0.5025 -0.765 -0.5025 -2.28q 0 -1.53 0.465 -2.28q 0.465 -0.75 1.335 -0.75q 0.63 0 1.08 0.2925Z "/></symbol><symbol id="g47BF355F78F97BC2AD7D8803E41DE419" overflow="visible"><path d="M 0 0m 7.305 0h -1.185l -0.105 1.23q -0.45 -0.735 -1.035 -1.0725q -0.585 -0.3375 -1.425 -0.3375q -1.035 0 -1.62 0.63q -0.585 0.63 -0.585 1.785v 5.67h 1.38v -5.52q 0 -0.81 0.285 -1.1475q 0.285 -0.3375 0.93 -0.3375q 1.155 0 1.98 1.365v 5.64h 1.38v -7.905Z "/></symbol><symbol id="g85844D4F5AB1502B878CBD67123C59CD" overflow="visible"><path d="M 0 0m 7.365 3.48h -5.04q 0.09 -1.305 0.66 -1.92q 0.57 -0.615 1.47 -0.615q 0.57 0 1.05 0.165q 0.48 0.165 1.005 0.525l 0.6 -0.825q -1.26 -0.99 -2.76 -0.99q -1.65 0 -2.5725 1.08q -0.9225 1.08 -0.9225 2.97q 0 1.23 0.3975 2.1825q 0.3975 0.9525 1.14 1.4925q 0.7425 0.54 1.7475 0.54q 1.575 0 2.415 -1.035q 0.84 -1.035 0.84 -2.865q 0 -0.345 -0.03 -0.705Z m -1.335 1.11q 0 1.17 -0.465 1.785q -0.465 0.615 -1.395 0.615q -1.695 0 -1.845 -2.49h 3.705v 0.09Z "/></symbol><symbol id="g1B39D7ADEDCA6ABA28854BEBC3C1CB04" overflow="visible"><path d="M 0 0m 1.7925 0.2775q -0.4425 0.4575 -0.4425 1.2825v 9.525l 1.38 0.165v -9.66q 0 -0.33 0.1125 -0.48q 0.1125 -0.15 0.3825 -0.15q 0.285 0 0.51 0.09l 0.36 -0.96q -0.495 -0.27 -1.095 -0.27q -0.765 0 -1.2075 0.4575Z "/></symbol><symbol id="gD8D0FC1B6D3FBE7DF8BABF74E5D53699" overflow="visible"><path d="M 0 0m 5.025 7.86q 0.645 -0.225 1.23 -0.675l -0.585 -0.87q -0.54 0.345 -1.0275 0.51q -0.4875 0.165 -1.0275 0.165q -0.675 0 -1.065 -0.2775q -0.39 -0.2775 -0.39 -0.7575q 0 -0.48 0.3675 -0.75q 0.3675 -0.27 1.3275 -0.525q 1.32 -0.33 1.9725 -0.9q 0.6525 -0.57 0.6525 -1.56q 0 -1.17 -0.9075 -1.785q -0.9075 -0.615 -2.2125 -0.615q -1.8 0 -2.985 1.035l 0.735 0.84q 1.005 -0.765 2.22 -0.765q 0.78 0 1.2375 0.3225q 0.4575 0.3225 0.4575 0.8775q 0 0.405 -0.165 0.6525q -0.165 0.2475 -0.57 0.435q -0.405 0.1875 -1.185 0.3975q -1.26 0.33 -1.8225 0.885q -0.5625 0.555 -0.5625 1.41q 0 0.615 0.3675 1.1175q 0.3675 0.5025 1.02 0.78q 0.6525 0.2775 1.4625 0.2775q 0.81 0 1.455 -0.225Z "/></symbol><symbol id="gFCFEBCBBC35E57EE2728EC1157B16F2F" overflow="visible"><path d="M 0 0m 10.74 0h -1.38l -0.36 4.665q -0.225 2.745 -0.255 4.215l -2.235 -7.71h -1.335l -2.355 7.725q 0 -1.875 -0.195 -4.335l -0.345 -4.56h -1.35l 0.855 10.335h 1.92l 2.175 -7.515l 2.07 7.515h 1.935l 0.855 -10.335Z "/></symbol><symbol id="gBA7C99291F1CC981CB33D37BD7FF6681" overflow="visible"><path d="M 0 0m 6.9825 6.975q 0.9225 -1.11 0.9225 -3.015q 0 -1.23 -0.42 -2.1675q -0.42 -0.9375 -1.215 -1.455q -0.795 -0.5175 -1.89 -0.5175q -1.665 0 -2.595 1.11q -0.93 1.11 -0.93 3.015q 0 1.23 0.42 2.1675q 0.42 0.9375 1.215 1.455q 0.795 0.5175 1.905 0.5175q 1.665 0 2.5875 -1.11Z m -4.6425 -3.03q 0 -3.015 2.04 -3.015q 2.04 0 2.04 3.03q 0 3.015 -2.025 3.015q -2.055 0 -2.055 -3.03Z "/></symbol><symbol id="gB77D2FC30968223749C3033AF1C87489" overflow="visible"><path d="M 0 0m 4.845 0h -1.38v 8.565l -2.34 -1.425l -0.6 0.975l 3.105 1.92h 1.215v -10.035Z "/></symbol><symbol id="g13623C15D101D7E4418274C621A035EC" overflow="visible"><path d="M 0 0m 6.8325 7.44q 0.6075 -0.645 0.6075 -1.77v -5.67h -1.38v 5.475q 0 0.84 -0.315 1.185q -0.315 0.345 -0.93 0.345q -0.63 0 -1.11 -0.36q -0.48 -0.36 -0.9 -1.035v -5.61h -1.38v 7.905h 1.185l 0.12 -1.17q 0.42 0.63 1.0425 0.99q 0.6225 0.36 1.3725 0.36q 1.08 0 1.6875 -0.645Z "/></symbol><symbol id="g11D02704E9BD29D2E8FEE903673757AF" overflow="visible"><path d="M 0 0m 12.512 0h -2.193l -0.306 4.913q -0.153 2.635 -0.153 4.182v 0.612l -2.142 -8.432h -2.125l -2.278 8.449q 0.034 -1.122 0.034 -1.7q 0 -1.547 -0.102 -3.179l -0.289 -4.845h -2.176l 0.935 11.747h 2.89l 2.091 -8.228l 1.972 8.228h 2.924l 0.918 -11.747Z "/></symbol><symbol id="g2506A026466B3ED3721379E61290AA0A" overflow="visible"><path d="M 0 0m 8.636 3.825h -5.644q 0.119 -1.309 0.6885 -1.87q 0.5695 -0.561 1.5215 -0.561q 0.595 0 1.122 0.1955q 0.527 0.1955 1.122 0.6035l 0.901 -1.241q -1.496 -1.207 -3.332 -1.207q -2.057 0 -3.1705 1.258q -1.1135 1.258 -1.1135 3.434q 0 1.377 0.476 2.4735q 0.476 1.0965 1.377 1.717q 0.901 0.6205 2.142 0.6205q 1.887 0 2.924 -1.1985q 1.037 -1.1985 1.037 -3.3405q 0 -0.17 -0.051 -0.884Z m -2.108 1.513q 0 2.363 -1.751 2.363q -0.799 0 -1.2495 -0.5865q -0.4505 -0.5865 -0.5355 -1.8785h 3.536v 0.102Z m 0.425 6.902l -3.842 -1.53l -0.612 1.105l 3.57 2.125l 0.884 -1.7Z "/></symbol><symbol id="g8D2650C4C7F7A00F8B9A570240591BEF" overflow="visible"><path d="M 0 0m 12.58 8.5085q 0.646 -0.7395 0.646 -1.9975v -6.511h -2.176v 6.171q 0 1.445 -0.986 1.445q -0.527 0 -0.9095 -0.3315q -0.3825 -0.3315 -0.7905 -1.0285v -6.256h -2.176v 6.171q 0 1.445 -0.986 1.445q -0.544 0 -0.9265 -0.3315q -0.3825 -0.3315 -0.7905 -1.0285v -6.256h -2.176v 8.993h 1.887l 0.17 -1.173q 1.02 1.428 2.601 1.428q 0.782 0 1.3515 -0.391q 0.5695 -0.391 0.8415 -1.122q 0.527 0.748 1.173 1.1305q 0.646 0.3825 1.513 0.3825q 1.088 0 1.734 -0.7395Z "/></symbol><symbol id="gB3D7984F9592968B06490117BA6A48EC" overflow="visible"><path d="M 0 0m 8.0835 7.9815q 1.1135 -1.2665 1.1135 -3.4765q 0 -1.411 -0.51 -2.4905q -0.51 -1.0795 -1.462 -1.6745q -0.952 -0.595 -2.261 -0.595q -1.989 0 -3.111 1.2665q -1.122 1.2665 -1.122 3.4935q 0 1.411 0.51 2.482q 0.51 1.071 1.4705 1.666q 0.9605 0.595 2.2695 0.595q 1.989 0 3.1025 -1.2665Z m -5.0575 -3.4765q 0 -1.598 0.4845 -2.3545q 0.4845 -0.7565 1.4535 -0.7565q 0.969 0 1.4535 0.765q 0.4845 0.765 0.4845 2.346q 0 1.581 -0.4845 2.3375q -0.4845 0.7565 -1.4365 0.7565q -1.955 0 -1.955 -3.094Z "/></symbol><symbol id="gFB7FCA15D6726E9BAD14CE048C9DFF3A" overflow="visible"><path d="M 0 0m 3.485 0h -2.176v 8.993h 2.176v -8.993Z m -0.1105 13.1665q 0.3825 -0.3825 0.3825 -0.9435q 0 -0.561 -0.3825 -0.935q -0.3825 -0.374 -0.9945 -0.374q -0.595 0 -0.9775 0.374q -0.3825 0.374 -0.3825 0.935q 0 0.561 0.3825 0.9435q 0.3825 0.3825 0.9775 0.3825q 0.612 0 0.9945 -0.3825Z "/></symbol><symbol id="g26F6204CC6BF8013D0BC324BAD599B02" overflow="visible"><path d="M 0 0m 6.647 9.112l -0.374 -2.108q -0.408 0.102 -0.799 0.102q -0.799 0 -1.258 -0.5695q -0.459 -0.5695 -0.731 -1.7595v -4.777h -2.176v 8.993h 1.887l 0.204 -1.768q 0.323 0.969 0.935 1.4875q 0.612 0.5185 1.411 0.5185q 0.493 0 0.901 -0.119Z "/></symbol><symbol id="gFE803BF860C29CFF0AD7DE82EBD6BE0E" overflow="visible"><path d="M 0 0m 5.61 0h -2.601l -2.975 8.993h 2.363l 1.921 -7.242l 1.972 7.242h 2.244l -2.924 -8.993Z "/></symbol><symbol id="gB3DBC6E4D9C6C3C4866D49BD162D1BC2" overflow="visible"><path d="M 0 0m 3.926 3.796h -1.391v -3.796h -1.235v 8.957h 2.353q 1.677 0 2.5415 -0.637q 0.8645 -0.637 0.8645 -1.898q 0 -0.936 -0.481 -1.521q -0.481 -0.585 -1.456 -0.884l 2.418 -4.017h -1.469l -2.145 3.796Z m -0.143 0.949q 0.975 0 1.469 0.3965q 0.494 0.3965 0.494 1.2805q 0 0.832 -0.5005 1.2025q -0.5005 0.3705 -1.6055 0.3705h -1.105v -3.25h 1.248Z "/></symbol><symbol id="g7015998E5DC70398E92CC6578F72F647" overflow="visible"><path d="M 0 0m 5.395 2.249h -3.393l -0.676 -2.249h -1.248l 2.873 8.957h 1.56l 2.86 -8.957h -1.3l -0.676 2.249Z m -0.299 1.001l -1.391 4.68l -1.404 -4.68h 2.795Z "/></symbol><symbol id="g1361B9E48CCA11C3D07C6BAEADF82E80" overflow="visible"><path d="M 0 0m 9.308 0h -1.196l -0.312 4.043q -0.195 2.379 -0.221 3.653l -1.937 -6.682h -1.157l -2.041 6.695q 0 -1.625 -0.169 -3.757l -0.299 -3.952h -1.17l 0.741 8.957h 1.664l 1.885 -6.513l 1.794 6.513h 1.677l 0.741 -8.957Z "/></symbol><symbol id="g172161F9DA9AB52034F5E2AC8C5B512" overflow="visible"><path d="M 0 0m 7.59 2.685q 0 -0.825 -0.4425 -1.4775q -0.4425 -0.6525 -1.2375 -1.02q -0.795 -0.3675 -1.8 -0.3675q -1.02 0 -1.8 0.36q -0.78 0.36 -1.2075 1.005q -0.4275 0.645 -0.4275 1.47q 0 0.93 0.5025 1.56q 0.5025 0.63 1.4775 1.05q -0.795 0.405 -1.1775 0.9825q -0.3825 0.5775 -0.3825 1.3575q 0 0.81 0.4275 1.395q 0.4275 0.585 1.125 0.885q 0.6975 0.3 1.4925 0.3q 0.78 0 1.4775 -0.285q 0.6975 -0.285 1.1325 -0.8625q 0.435 -0.5775 0.435 -1.3875q 0 -0.75 -0.42 -1.29q -0.42 -0.54 -1.29 -0.975q 2.115 -0.855 2.115 -2.7Z m -4.6875 6.06q -0.4575 -0.405 -0.4575 -1.155q 0 -0.72 0.4425 -1.095q 0.4425 -0.375 1.4175 -0.69l 0.255 -0.09q 0.675 0.39 0.975 0.825q 0.3 0.435 0.3 1.065q 0 0.705 -0.4425 1.125q -0.4425 0.42 -1.2525 0.42q -0.78 0 -1.2375 -0.405Z m 2.7 -7.35q 0.5475 0.48 0.5475 1.275q 0 0.54 -0.21 0.9075q -0.21 0.3675 -0.675 0.645q -0.465 0.2775 -1.305 0.5625l -0.375 0.135q -0.75 -0.36 -1.11 -0.9075q -0.36 -0.5475 -0.36 -1.3575q 0 -0.825 0.54 -1.2825q 0.54 -0.4575 1.47 -0.4575q 0.93 0 1.4775 0.48Z "/></symbol><symbol id="gA5BD28BF4ECC08FB10645E8D02EB7B1A" overflow="visible"><path d="M 0 0m 6.915 1.1325q 0.165 -0.2325 0.495 -0.3525l -0.315 -0.96q -0.615 0.075 -0.99 0.345q -0.375 0.27 -0.555 0.84q -0.795 -1.185 -2.355 -1.185q -1.17 0 -1.845 0.66q -0.675 0.66 -0.675 1.725q 0 1.26 0.9075 1.935q 0.9075 0.675 2.5725 0.675h 1.215v 0.585q 0 0.84 -0.405 1.2q -0.405 0.36 -1.245 0.36q -0.87 0 -2.13 -0.42l -0.345 1.005q 1.47 0.54 2.73 0.54q 1.395 0 2.085 -0.6825q 0.69 -0.6825 0.69 -1.9425v -3.615q 0 -0.48 0.165 -0.7125Z m -1.545 0.9525v 1.815h -1.035q -2.19 0 -2.19 -1.62q 0 -0.705 0.345 -1.065q 0.345 -0.36 1.02 -0.36q 1.185 0 1.86 1.23Z m 0.495 8.22l -0.42 -0.735l -3.18 1.29l 0.615 1.155l 2.985 -1.71Z "/></symbol><symbol id="g7887E0FF6495577B8E45131744738B95" overflow="visible"><path d="M 0 0m 4.9725 9.84q 0.6675 -0.345 1.02 -0.93q 0.3525 -0.585 0.3525 -1.275q 0 -0.915 -0.5325 -1.5075q -0.5325 -0.5925 -1.4175 -0.8025q 1.005 -0.09 1.635 -0.72q 0.63 -0.63 0.63 -1.71q 0 -0.87 -0.42 -1.575q -0.42 -0.705 -1.2 -1.1025q -0.78 -0.3975 -1.8 -0.3975q -0.915 0 -1.68 0.3375q -0.765 0.3375 -1.335 1.0125l 0.825 0.765q 0.495 -0.51 1.0125 -0.75q 0.5175 -0.24 1.1325 -0.24q 0.945 0 1.485 0.5325q 0.54 0.5325 0.54 1.4325q 0 0.99 -0.51 1.395q -0.51 0.405 -1.485 0.405h -0.75l 0.165 1.065h 0.51q 0.78 0 1.2975 0.465q 0.5175 0.465 0.5175 1.305q 0 0.705 -0.45 1.1175q -0.45 0.4125 -1.215 0.4125q -0.585 0 -1.0725 -0.21q -0.4875 -0.21 -0.9975 -0.69l -0.72 0.825q 1.275 1.185 2.865 1.185q 0.93 0 1.5975 -0.345Z "/></symbol><symbol id="g57F1A74F0B451F83C79E765E4299E9C5" overflow="visible"><path d="M 0 0m 5.0025 9.825q 0.6825 -0.36 1.0575 -0.9825q 0.375 -0.6225 0.375 -1.4025q 0 -0.915 -0.4125 -1.755q -0.4125 -0.84 -1.2675 -1.815q -0.855 -0.975 -2.595 -2.715h 4.515l -0.165 -1.155h -5.925v 1.095q 2.01 2.085 2.85 3.0525q 0.84 0.9675 1.2 1.6875q 0.36 0.72 0.36 1.545q 0 0.78 -0.45 1.2225q -0.45 0.4425 -1.2 0.4425q -0.615 0 -1.08 -0.255q -0.465 -0.255 -0.96 -0.84l -0.93 0.72q 0.615 0.765 1.365 1.14q 0.75 0.375 1.68 0.375q 0.9 0 1.5825 -0.36Z "/></symbol><symbol id="gEFAA6B31A09AAB0ACF628540F070E857" overflow="visible"><path d="M 0 0m 6.9975 10.2375q 0.7125 -0.2775 1.4175 -0.8625l -0.84 -0.87q -0.555 0.45 -1.065 0.645q -0.51 0.195 -1.2 0.195q -0.795 0 -1.4625 -0.4275q -0.6675 -0.4275 -1.0875 -1.365q -0.42 -0.9375 -0.42 -2.3775q 0 -2.175 0.7125 -3.18q 0.7125 -1.005 2.1075 -1.005q 1.155 0 1.965 0.48v 3.105h -1.83l -0.165 1.155h 3.405v -4.995q -0.75 -0.45 -1.5975 -0.6825q -0.8475 -0.2325 -1.8825 -0.2325q -1.965 0 -3.0975 1.365q -1.1325 1.365 -1.1325 3.99q 0 1.68 0.615 2.8875q 0.615 1.2075 1.635 1.83q 1.02 0.6225 2.205 0.6225q 1.005 0 1.7175 -0.2775Z "/></symbol><symbol id="g726B0D8E60A662449E18BC3FDB88A8A8" overflow="visible"><path d="M 0 0m 6.6975 8.8575q 0.8475 -1.3275 0.8475 -3.8475q 0 -2.52 -0.8475 -3.855q -0.8475 -1.335 -2.5125 -1.335q -1.665 0 -2.5125 1.335q -0.8475 1.335 -0.8475 3.855q 0 2.52 0.8475 3.8475q 0.8475 1.3275 2.5125 1.3275q 1.665 0 2.5125 -1.3275Z m -3.96 -0.7275q -0.4725 -0.96 -0.4725 -3.12q 0 -2.16 0.4725 -3.1275q 0.4725 -0.9675 1.4475 -0.9675q 0.96 0 1.44 0.9675q 0.48 0.9675 0.48 3.1275q 0 2.145 -0.48 3.1125q -0.48 0.9675 -1.44 0.9675q -0.975 0 -1.4475 -0.96Z "/></symbol><symbol id="gE400A520672726CC80C725DB46891D10" overflow="visible"><path d="M 0 0m 8.6445 10.506q 1.6405 -1.241 1.6405 -4.573q 0 -3.264 -1.615 -4.5985q -1.615 -1.3345 -4.097 -1.3345h -3.196v 11.747h 2.89q 2.737 0 4.3775 -1.241Z m -5.0235 -0.442v -8.381h 1.105q 1.496 0 2.346 0.9265q 0.85 0.9265 0.85 3.3235q 0 1.666 -0.4335 2.5755q -0.4335 0.9095 -1.139 1.2325q -0.7055 0.323 -1.6915 0.323h -1.037Z "/></symbol><symbol id="gBAAEE7D72FFB055E2394D8C41B4CF3A4" overflow="visible"><path d="M 0 0m 7.344 8.177l -0.85 -1.275q -1.156 0.731 -2.261 0.731q -0.646 0 -1.003 -0.2465q -0.357 -0.2465 -0.357 -0.6545q 0 -0.306 0.153 -0.51q 0.153 -0.204 0.5525 -0.3825q 0.3995 -0.1785 1.1815 -0.3995q 1.462 -0.391 2.1675 -1.037q 0.7055 -0.646 0.7055 -1.802q 0 -1.343 -1.088 -2.0995q -1.088 -0.7565 -2.703 -0.7565q -1.105 0 -2.0145 0.34q -0.9095 0.34 -1.5725 0.935l 1.088 1.224q 1.173 -0.884 2.448 -0.884q 0.731 0 1.1645 0.289q 0.4335 0.289 0.4335 0.799q 0 0.391 -0.1615 0.6205q -0.1615 0.2295 -0.578 0.408q -0.4165 0.1785 -1.3005 0.4335q -1.377 0.374 -2.023 1.0455q -0.646 0.6715 -0.646 1.6745q 0 0.748 0.4335 1.343q 0.4335 0.595 1.224 0.935q 0.7905 0.34 1.8105 0.34q 1.819 0 3.196 -1.071Z "/></symbol><symbol id="g7AD8CCF076FEDFA50AE86CBFDE321C0B" overflow="visible"><path d="M 0 0m 8.789 8.993v -12.699l -2.176 0.238v 4.471q -0.425 -0.595 -1.054 -0.9265q -0.629 -0.3315 -1.411 -0.3315q -1.649 0 -2.533 1.275q -0.884 1.275 -0.884 3.468q 0 1.394 0.442 2.4735q 0.442 1.0795 1.2665 1.683q 0.8245 0.6035 1.9465 0.6035q 1.377 0 2.38 -1.122l 0.136 0.867h 1.887Z m -3.009 -7.3185q 0.442 0.2805 0.833 0.8755v 4.114q -0.374 0.476 -0.782 0.714q -0.408 0.238 -0.918 0.238q -0.884 0 -1.3855 -0.7735q -0.5015 -0.7735 -0.5015 -2.3375q 0 -1.666 0.442 -2.3885q 0.442 -0.7225 1.292 -0.7225q 0.578 0 1.02 0.2805Z "/></symbol><symbol id="g999ACDBE2466066DB7452B35716627AB" overflow="visible"><path d="M 0 0m 8.5 0h -1.887l -0.119 1.258q -0.493 -0.765 -1.1645 -1.139q -0.6715 -0.374 -1.5895 -0.374q -1.207 0 -1.8615 0.7395q -0.6545 0.7395 -0.6545 2.0485v 6.46h 2.176v -6.188q 0 -0.765 0.2635 -1.088q 0.2635 -0.323 0.8415 -0.323q 1.037 0 1.819 1.275v 6.324h 2.176v -8.993Z "/></symbol><symbol id="g8BF8AF23DEE13E701F3D0F0BF4F4A18B" overflow="visible"><path d="M 0 0m 5.044 8.8595q 0.637 -0.2535 1.235 -0.7865l -0.676 -0.754q -0.507 0.403 -0.9945 0.5915q -0.4875 0.1885 -1.0465 0.1885q -0.702 0 -1.157 -0.325q -0.455 -0.325 -0.455 -0.949q 0 -0.39 0.156 -0.6565q 0.156 -0.2665 0.5785 -0.4875q 0.4225 -0.221 1.2285 -0.468q 0.845 -0.26 1.404 -0.559q 0.559 -0.299 0.9035 -0.8255q 0.3445 -0.5265 0.3445 -1.3325q 0 -0.78 -0.3835 -1.378q -0.3835 -0.598 -1.105 -0.936q -0.7215 -0.338 -1.7095 -0.338q -1.859 0 -3.042 1.157l 0.689 0.767q 0.533 -0.455 1.092 -0.6825q 0.559 -0.2275 1.248 -0.2275q 0.832 0 1.378 0.4095q 0.546 0.4095 0.546 1.1895q 0 0.442 -0.169 0.7345q -0.169 0.2925 -0.5785 0.5265q -0.4095 0.234 -1.1895 0.468q -1.378 0.416 -2.015 1.001q -0.637 0.585 -0.637 1.586q 0 0.676 0.3575 1.209q 0.3575 0.533 1.001 0.832q 0.6435 0.299 1.4625 0.299q 0.897 0 1.534 -0.2535Z "/></symbol><symbol id="g869E3DFFC36AD4D8503C7C9ADA9ADA60" overflow="visible"><path d="M 0 0m 6.4285 8.0145q 1.2285 -0.9425 1.2285 -3.4905q 0 -2.483 -1.2285 -3.5035q -1.2285 -1.0205 -2.9835 -1.0205h -2.145v 8.957h 1.872q 2.028 0 3.2565 -0.9425Z m -3.8935 -0.0455v -6.994h 1.001q 1.248 0 2.028 0.767q 0.78 0.767 0.78 2.782q 0 1.417 -0.403 2.1775q -0.403 0.7605 -1.027 1.014q -0.624 0.2535 -1.469 0.2535h -0.91Z "/></symbol><symbol id="gB5B4688AAA843FE356DE918E5C16C780" overflow="visible"><path d="M 0 0m 2.431 0h -1.196v 6.851h 1.196v -6.851Z m 0 9.906q 0.234 -0.234 0.234 -0.585q 0 -0.351 -0.234 -0.5785q -0.234 -0.2275 -0.611 -0.2275q -0.364 0 -0.598 0.2275q -0.234 0.2275 -0.234 0.5785q 0 0.351 0.234 0.585q 0.234 0.234 0.598 0.234q 0.377 0 0.611 -0.234Z "/></symbol><symbol id="g1E98E0723864BDEB8DA435F32E89390D" overflow="visible"><path d="M 0 0m 6.474 6.851v -9.62l -1.196 0.143v 3.536q -0.338 -0.507 -0.8385 -0.7865q -0.5005 -0.2795 -1.1115 -0.2795q -1.222 0 -1.9045 0.962q -0.6825 0.962 -0.6825 2.587q 0 1.053 0.325 1.872q 0.325 0.819 0.936 1.2805q 0.611 0.4615 1.43 0.4615q 1.092 0 1.924 -0.923l 0.091 0.767h 1.027Z m -1.95 -5.8045q 0.39 0.2535 0.754 0.7605v 3.354q -0.338 0.442 -0.7215 0.6695q -0.3835 0.2275 -0.8645 0.2275q -0.793 0 -1.2285 -0.663q -0.4355 -0.663 -0.4355 -1.976q 0 -1.326 0.403 -1.976q 0.403 -0.65 1.157 -0.65q 0.546 0 0.936 0.2535Z "/></symbol><symbol id="g91451115A39664397720F87793924C3D" overflow="visible"><path d="M 0 0m 2.535 1.605q 0.3 -0.3 0.3 -0.735q 0 -0.465 -0.27 -1.065l -1.005 -2.295h -0.99l 0.6 2.49q -0.195 0.15 -0.3075 0.375q -0.1125 0.225 -0.1125 0.495q 0 0.435 0.3 0.735q 0.3 0.3 0.735 0.3q 0.45 0 0.75 -0.3Z "/></symbol><symbol id="gBD1A2E22FEBF37418FA9AD1F43913F21" overflow="visible"><path d="M 0 0m 6.3 8.955h -3.915v -2.955q 0.765 0.39 1.605 0.39q 1.29 0 2.07 -0.8475q 0.78 -0.8475 0.78 -2.3325q 0 -0.99 -0.435 -1.7625q -0.435 -0.7725 -1.2225 -1.2q -0.7875 -0.4275 -1.8225 -0.4275q -0.915 0 -1.635 0.3225q -0.72 0.3225 -1.335 0.9525l 0.84 0.81q 0.45 -0.495 0.96 -0.7275q 0.51 -0.2325 1.155 -0.2325q 0.96 0 1.5075 0.6q 0.5475 0.6 0.5475 1.695q 0 1.095 -0.495 1.59q -0.495 0.495 -1.335 0.495q -0.39 0 -0.72 -0.0825q -0.33 -0.0825 -0.705 -0.2625h -1.08v 5.055h 5.43l -0.195 -1.08Z "/></symbol><symbol id="g184A955A5788F64A841441397B0F9B" overflow="visible"><path d="M 0 0m 7.53 2.475h -1.305v -2.475h -1.335v 2.475h -4.29v 0.99l 3.015 6.72l 1.155 -0.48l -2.715 -6.135h 2.85l 0.12 2.7h 1.2v -2.7h 1.305v -1.095Z "/></symbol><symbol id="gEC0B5F71FD594D8AD137C858A440B265" overflow="visible"><path d="M 0 0m 7.455 9.12h -2.865v -9.12h -1.425v 9.12h -2.94v 1.215h 7.38l -0.15 -1.215Z "/></symbol><symbol id="g56A699EF19EE5CF72C363A14CFF5B105" overflow="visible"><path d="M 0 0m 10.92 7.4325q 0.585 -0.6525 0.585 -1.7625v -5.67h -1.38v 5.475q 0 1.53 -1.11 1.53q -0.585 0 -0.99 -0.3375q -0.405 -0.3375 -0.87 -1.0575v -5.61h -1.38v 5.475q 0 1.53 -1.11 1.53q -0.6 0 -1.005 -0.345q -0.405 -0.345 -0.855 -1.05v -5.61h -1.38v 7.905h 1.185l 0.12 -1.155q 0.885 1.335 2.28 1.335q 0.735 0 1.2525 -0.375q 0.5175 -0.375 0.7425 -1.05q 0.465 0.69 1.0275 1.0575q 0.5625 0.3675 1.3275 0.3675q 0.975 0 1.56 -0.6525Z "/></symbol><symbol id="g12417DE4E4F345A01CCE4D1D31BF4A1A" overflow="visible"><path d="M 0 0m 5.049 4.709h -1.428v -4.709h -2.244v 11.747h 3.502q 4.658 0 4.658 -3.451q 0 -1.19 -0.578 -1.9465q -0.578 -0.7565 -1.802 -1.2325l 3.077 -5.117h -2.584l -2.601 4.709Z m -1.428 1.615h 1.394q 1.071 0 1.6235 0.4675q 0.5525 0.4675 0.5525 1.5045q 0 0.952 -0.5695 1.3855q -0.5695 0.4335 -1.7935 0.4335h -1.207v -3.791Z "/></symbol><symbol id="g9B398F5C58544173B12B8B90B7B4CE5A" overflow="visible"><path d="M 0 0m 4.693 0.312q -0.676 -0.468 -1.534 -0.468q -0.871 0 -1.3585 0.5005q -0.4875 0.5005 -0.4875 1.4495v 4.134h -1.196v 0.923h 1.196v 1.547l 1.196 0.143v -1.69h 1.625l -0.13 -0.923h -1.495v -4.082q 0 -0.533 0.1885 -0.7735q 0.1885 -0.2405 0.6305 -0.2405q 0.429 0 0.91 0.299l 0.455 -0.819Z "/></symbol><symbol id="g59271539E7488636B02BC8BC42E313E8" overflow="visible"><path d="M 0 0m 6.915 1.1325q 0.165 -0.2325 0.495 -0.3525l -0.315 -0.96q -0.615 0.075 -0.99 0.345q -0.375 0.27 -0.555 0.84q -0.795 -1.185 -2.355 -1.185q -1.17 0 -1.845 0.66q -0.675 0.66 -0.675 1.725q 0 1.26 0.9075 1.935q 0.9075 0.675 2.5725 0.675h 1.215v 0.585q 0 0.84 -0.405 1.2q -0.405 0.36 -1.245 0.36q -0.87 0 -2.13 -0.42l -0.345 1.005q 1.47 0.54 2.73 0.54q 1.395 0 2.085 -0.6825q 0.69 -0.6825 0.69 -1.9425v -3.615q 0 -0.48 0.165 -0.7125Z m -1.545 0.9525v 1.815h -1.035q -2.19 0 -2.19 -1.62q 0 -0.705 0.345 -1.065q 0.345 -0.36 1.02 -0.36q 1.185 0 1.86 1.23Z "/></symbol><symbol id="g63B877D79C1A1BB5FEBA58FD550F45B4" overflow="visible"><path d="M 0 0m 2.805 0h -1.38v 7.905h 1.38v -7.905Z m 0 11.43q 0.27 -0.27 0.27 -0.675q 0 -0.405 -0.27 -0.6675q -0.27 -0.2625 -0.705 -0.2625q -0.42 0 -0.69 0.2625q -0.27 0.2625 -0.27 0.6675q 0 0.405 0.27 0.675q 0.27 0.27 0.69 0.27q 0.435 0 0.705 -0.27Z "/></symbol><symbol id="g16786E7496FDFA352F20836B6C22FB9" overflow="visible"><path d="M 0 0m 5.415 0.36q -0.78 -0.54 -1.77 -0.54q -1.005 0 -1.5675 0.5775q -0.5625 0.5775 -0.5625 1.6725v 4.77h -1.38v 1.065h 1.38v 1.785l 1.38 0.165v -1.95h 1.875l -0.15 -1.065h -1.725v -4.71q 0 -0.615 0.2175 -0.8925q 0.2175 -0.2775 0.7275 -0.2775q 0.495 0 1.05 0.345l 0.525 -0.945Z "/></symbol><symbol id="gC128E7A59328BF51BC3FF05F928BE9A1" overflow="visible"><path d="M 0 0m 5.49185 6.7184h -2.11055v -6.7184h -1.04975v 6.7184h -2.1658v 0.89505h 5.4366l -0.1105 -0.89505Z "/></symbol><symbol id="gAAC0A09B2F09F52249787A1DE9065D3C" overflow="visible"><path d="M 0 0m 4.58575 1.91165h -2.88405l -0.5746 -1.91165h -1.0608l 2.44205 7.61345h 1.326l 2.431 -7.61345h -1.105l -0.5746 1.91165Z m -0.25415 0.85085l -1.18235 3.978l -1.1934 -3.978h 2.37575Z "/></symbol><symbol id="g3C74FB9963B8F5B7E1636EFDF9F8F90D" overflow="visible"><path d="M 0 0m 2.15475 0h -1.04975v 7.61345h 1.04975v -7.61345Z "/></symbol><symbol id="gAD38C9EE51CD5B8774C3F1DE39FBEA94" overflow="visible"><path d="M 0 0m 2.15475 0.91715h 3.12715l -0.12155 -0.91715h -4.05535v 7.61345h 1.04975v -6.6963Z "/></symbol><symbol id="g753EC0F5CDFB5B808B19C647FECA7D56" overflow="visible"><path d="M 0 0m 5.1051 6.77365h -2.95035v -2.48625h 2.5636v -0.8398h -2.5636v -2.6078h 3.1603v -0.8398h -4.21005v 7.61345h 4.12165l -0.12155 -0.8398Z "/></symbol><symbol id="gF678968D150E124D7BF639511CFB8B47" overflow="visible"><path d="M 0 0m 7.9118 0h -1.0166l -0.2652 3.43655q -0.16575 2.02215 -0.18785 3.10505l -1.64645 -5.6797h -0.98345l -1.73485 5.69075q 0 -1.38125 -0.14365 -3.19345l -0.25415 -3.3592h -0.9945l 0.62985 7.61345h 1.4144l 1.60225 -5.53605l 1.5249 5.53605h 1.42545l 0.62985 -7.61345Z "/></symbol><symbol id="g81E9DCC22264F0F407E5518ECB42F3DE" overflow="visible"><path d="M 0 0m 5.29295 7.022275q 0.7735 -0.591175 0.7735 -1.762475q 0 -1.24865 -0.80665 -1.8564q -0.80665 -0.60775 -2.1437 -0.60775h -0.96135v -2.79565h -1.04975v 7.61345h 2.00005q 1.4144 0 2.1879 -0.591175Z m -0.823225 -3.044275q 0.480675 0.3536 0.480675 1.27075q 0 0.8177 -0.480675 1.18235q -0.480675 0.36465 -1.375725 0.36465h -0.93925v -3.17135h 0.91715q 0.91715 0 1.397825 0.3536Z "/></symbol><symbol id="gF9005B2C2A77C3091A56D4E4A6A1AF45" overflow="visible"><path d="M 0 0m 4.2874 7.530575q 0.54145 -0.215475 1.04975 -0.668525l -0.5746 -0.6409q -0.43095 0.34255 -0.845325 0.502775q -0.414375 0.160225 -0.889525 0.160225q -0.5967 0 -0.98345 -0.27625q -0.38675 -0.27625 -0.38675 -0.80665q 0 -0.3315 0.1326 -0.558025q 0.1326 -0.226525 0.491725 -0.414375q 0.359125 -0.18785 1.044225 -0.3978q 0.71825 -0.221 1.1934 -0.47515q 0.47515 -0.25415 0.767975 -0.701675q 0.292825 -0.447525 0.292825 -1.132625q 0 -0.663 -0.325975 -1.1713q -0.325975 -0.5083 -0.93925 -0.7956q -0.613275 -0.2873 -1.453075 -0.2873q -1.58015 0 -2.5857 0.98345l 0.58565 0.65195q 0.45305 -0.38675 0.9282 -0.580125q 0.47515 -0.193375 1.0608 -0.193375q 0.7072 0 1.1713 0.348075q 0.4641 0.348075 0.4641 1.011075q 0 0.3757 -0.14365 0.624325q -0.14365 0.248625 -0.491725 0.447525q -0.348075 0.1989 -1.011075 0.3978q -1.1713 0.3536 -1.71275 0.85085q -0.54145 0.49725 -0.54145 1.3481q 0 0.5746 0.303875 1.02765q 0.303875 0.45305 0.85085 0.7072q 0.546975 0.25415 1.243125 0.25415q 0.76245 0 1.3039 -0.215475Z "/></symbol><symbol id="g6392FE002FFBD31B85155A3BD2886297" overflow="visible"><path d="M 0 0m 5.464225 6.812325q 1.044225 -0.801125 1.044225 -2.966925q 0 -2.11055 -1.044225 -2.977975q -1.044225 -0.867425 -2.535975 -0.867425h -1.82325v 7.61345h 1.5912q 1.7238 0 2.768025 -0.801125Z m -3.309475 -0.038675v -5.9449h 0.85085q 1.0608 0 1.7238 0.65195q 0.663 0.65195 0.663 2.3647q 0 1.20445 -0.34255 1.850875q -0.34255 0.646425 -0.87295 0.8619q -0.5304 0.215475 -1.24865 0.215475h -0.7735Z "/></symbol><symbol id="gBD9544C147CB05BA5B0BB217D627EEE7" overflow="visible"><path d="M 0 0m 0.663 7.61345h 1.09395l -0.16575 -2.8951h -0.76245l -0.16575 2.8951Z "/></symbol><symbol id="g8ACD1BB3800AB2B8EDDB4E8332F1A4BE" overflow="visible"><path d="M 0 0m 4.922775 7.56925q 0.469625 -0.1768 0.955825 -0.5746l -0.5746 -0.67405q -0.69615 0.56355 -1.46965 0.56355q -0.9503 0 -1.530425 -0.7293q -0.580125 -0.7293 -0.580125 -2.3426q 0 -1.5691 0.5746 -2.314975q 0.5746 -0.745875 1.5249 -0.745875q 0.4862 0 0.8398 0.16575q 0.3536 0.16575 0.7735 0.47515l 0.5304 -0.67405q -0.34255 -0.36465 -0.900575 -0.60775q -0.558025 -0.2431 -1.276275 -0.2431q -0.9282 0 -1.651975 0.458575q -0.723775 0.458575 -1.1271 1.3481q -0.403325 0.889525 -0.403325 2.138175q 0 1.24865 0.4199 2.138175q 0.4199 0.889525 1.13815 1.342575q 0.71825 0.45305 1.60225 0.45305q 0.6851 0 1.154725 -0.1768Z "/></symbol><symbol id="g818FD7325E825C6DA0DB1BBD9DA1331A" overflow="visible"><path d="M 0 0m 5.1051 6.77365h -2.95035v -2.48625h 2.5636v -0.8398h -2.5636v -2.6078h 3.1603v -0.8398h -4.21005v 7.61345h 4.12165l -0.12155 -0.8398Z m -0.6851 2.11055l -0.2652 -0.54145l -2.3868 0.87295l 0.43095 0.85085l 2.22105 -1.18235Z "/></symbol></defs></svg>